{"title":"Pacific Rim 2013.1080p.BluRay.x264 . NVEE","uid":9042588,"size":2977387340,"categoryP":"video","categoryS":"hd___movies","magnet":"?xt=urn:btih:38398f610653ed85d4bb687d6c77ecc9ea1ecde9&amp;dn=Pacific+Rim+2013.1080p.BluRay.x264+.+NVEE&amp;tr=udp%3A%2F%2Ftracker.openbittorrent.com%3A80&amp;tr=udp%3A%2F%2Fopen.demonii.com%3A1337&amp;tr=udp%3A%2F%2Ftracker.coppersurfer.tk%3A6969&amp;tr=udp%3A%2F%2Fexodus.desync.com%3A6969","seeders":6,"leechers":1,"uploader":".NVEE","files":12,"time":1381671739,"description":"FULL_INFOs\n\n99.99% --- SYNCED GUARANTEED \n\n&quot;Totally scrutinized / analyzed to be a verified torrent.&quot;\n___________________________________________\n\nSource : Blu-Ray ~ 1080p\n\nMy Media Player of Choice &quot;VLC Media Player via HDMI&quot;\n\nSpoken Language : English Only\n\nAudio : 6 ~ Channels Only\n\n_____________________________________\n\n &lt;a href=&quot;\nhttp://www.imdb.com/title/tt1663662/&quot; rel=&quot;nofollow&quot; target=&quot;_NEW&quot;&gt;\nhttp://www.imdb.com/title/tt1663662/&lt;/a&gt;\n\n\nSubs Info : MULTI_SUBS\n &lt;a href=&quot;\nhttp://www.subtitleseeker.com/1663662/Pacific+Rim/Subtitles/&quot; rel=&quot;nofollow&quot; target=&quot;_NEW&quot;&gt;\nhttp://www.subtitleseeker.com/1663662/Pacific+Rim/Subtitles/&lt;/a&gt;\n\n833 Subtitles In 37 Languages Use Link Provided \n &lt;a href=&quot;\nhttp://www.subtitleseeker.com/1663662/Pacific+Rim/Subtitles/&quot; rel=&quot;nofollow&quot; target=&quot;_NEW&quot;&gt;\nhttp://www.subtitleseeker.com/1663662/Pacific+Rim/Subtitles/&lt;/a&gt;\n\n833 Subtitles In 37 Languages Only @ SubtitleSeeker\n &lt;a href=&quot;\nhttp://www.subtitleseeker.com/1663662/Pacific+Rim/Subtitles/&quot; rel=&quot;nofollow&quot; target=&quot;_NEW&quot;&gt;\nhttp://www.subtitleseeker.com/1663662/Pacific+Rim/Subtitles/&lt;/a&gt;\n\n&amp; or @\n &lt;a href=&quot;\nhttp://subscene.com/subtitles/pacific-rim&quot; rel=&quot;nofollow&quot; target=&quot;_NEW&quot;&gt;\nhttp://subscene.com/subtitles/pacific-rim&lt;/a&gt;\n\nAll .srt subs can be turned On/Off\n\n &lt;a href=&quot;\nhttp://www.imdb.com/title/tt1663662/&quot; rel=&quot;nofollow&quot; target=&quot;_NEW&quot;&gt;\nhttp://www.imdb.com/title/tt1663662/&lt;/a&gt;\n\n\n---------------------------------------------------------------------------------\n\nGeneral\n\nComplete name : Pacific Rim 2013.1080p.BluRay.x264 . NVEE.mp4\nFormat : MPEG-4\nFormat profile : Base Media\nCodec ID : isom\nFile size : 2.77 GiB\nDuration : 2h 11mn\nOverall bit rate : 3 018 Kbps\nEncoded date : UTC 2013-10-09 08:48:05\nTagged date : UTC 2013-10-09 08:48:05\n\nVideo\n\nID : 1\nFormat : AVC\nFormat/Info : Advanced Video Codec\nFormat profile : &lt;a class=&quot;__cf_email__&quot; href=&quot;/cdn-cgi/l/email-protection&quot; data-cfemail=&quot;b6fedfd1def6fa829886&quot;&gt;[email&amp;#160;protected]&lt;/a&gt;&lt;script cf-hash='f9e31' type=&quot;text/javascript&quot;&gt;\n/* &lt;![CDATA[ */!function(){try{var t=&quot;currentScript&quot;in document?document.currentScript:function(){for(var t=document.getElementsByTagName(&quot;script&quot;),e=t.length;e--;)if(t[e].getAttribute(&quot;cf-hash&quot;))return t[e]}();if(t&amp;&amp;t.previousSibling){var e,r,n,i,c=t.previousSibling,a=c.getAttribute(&quot;data-cfemail&quot;);if(a){for(e=&quot;&quot;,r=parseInt(a.substr(0,2),16),n=2;a.length-n;n+=2)i=parseInt(a.substr(n,2),16)^r,e+=String.fromCharCode(i);e=document.createTextNode(e),c.parentNode.replaceChild(e,c)}}}catch(u){}}();/* ]]&gt; */&lt;/script&gt;\nFormat settings, CABAC : Yes\nFormat settings, ReFrames : 4 frames\nCodec ID : avc1\nCodec ID/Info : Advanced Video Coding\nDuration : 2h 11mn\nBit rate : 2 412 Kbps\nMaximum bit rate : 15.3 Mbps\nWidth : 1 920 pixels\nHeight : 1 080 pixels\nDisplay aspect ratio : 16:9\nFrame rate mode : Constant\nFrame rate : 23.976 fps\nColor space : YUV\nChroma subsampling : 4:2:0\nBit depth : 8 bits\nScan type : Progressive\nBits/(Pixel*Frame) : 0.049\nStream size : 2.21 GiB (80%)\nTitle : 1080p.BluRay.x264 .264#trackID=1:fps=&lt;a class=&quot;__cf_email__&quot; href=&quot;/cdn-cgi/l/email-protection&quot; data-cfemail=&quot;a89a9b86919f9ee8eff8e9eb98869d869985ecedfe85dacdde9c9a909b&quot;&gt;[email&amp;#160;protected]&lt;/a&gt;&lt;script cf-hash='f9e31' type=&quot;text/javascript&quot;&gt;\n/* &lt;![CDATA[ */!function(){try{var t=&quot;currentScript&quot;in document?document.currentScript:function(){for(var t=document.getElementsByTagName(&quot;script&quot;),e=t.length;e--;)if(t[e].getAttribute(&quot;cf-hash&quot;))return t[e]}();if(t&amp;&amp;t.previousSibling){var e,r,n,i,c=t.previousSibling,a=c.getAttribute(&quot;data-cfemail&quot;);if(a){for(e=&quot;&quot;,r=parseInt(a.substr(0,2),16),n=2;a.length-n;n+=2)i=parseInt(a.substr(n,2),16)^r,e+=String.fromCharCode(i);e=document.createTextNode(e),c.parentNode.replaceChild(e,c)}}}catch(u){}}();/* ]]&gt; */&lt;/script&gt;\nWriting library : x264 core 133 r2334 a3ac64b\nEncoded date : UTC 2013-10-09 08:48:05\nTagged date : UTC 2013-10-09 09:02:25\nColor primaries : BT.709\nTransfer characteristics : BT.709\nMatrix coefficients : BT.709\n\nAudio\n\nID : 2\nFormat : AC-3\nFormat/Info : Audio Coding 3\nMode extension : CM (complete main)\nFormat settings, Endianness : Big\nCodec ID : ac-3\nDuration : 2h 4mn\nBit rate mode : Constant\nBit rate : 640 Kbps\nChannel(s) : 6 channels\nChannel positions : Front: L C R, Side: L R, LFE\nSampling rate : 48.0 KHz\nBit depth : 16 bits\nCompression mode : Lossy\nStream size : 569 MiB (20%)\nTitle : 1080p.BluRay.x264 . NVEE - [0] English_audio.ac3#trackID=1:lang=&lt;a class=&quot;__cf_email__&quot; href=&quot;/cdn-cgi/l/email-protection&quot; data-cfemail=&quot;3b5e557b7c6b7a780b150e150a167f7e6d16495e4d0f090308&quot;&gt;[email&amp;#160;protected]&lt;/a&gt;&lt;script cf-hash='f9e31' type=&quot;text/javascript&quot;&gt;\n/* &lt;![CDATA[ */!function(){try{var t=&quot;currentScript&quot;in document?document.currentScript:function(){for(var t=document.getElementsByTagName(&quot;script&quot;),e=t.length;e--;)if(t[e].getAttribute(&quot;cf-hash&quot;))return t[e]}();if(t&amp;&amp;t.previousSibling){var e,r,n,i,c=t.previousSibling,a=c.getAttribute(&quot;data-cfemail&quot;);if(a){for(e=&quot;&quot;,r=parseInt(a.substr(0,2),16),n=2;a.length-n;n+=2)i=parseInt(a.substr(n,2),16)^r,e+=String.fromCharCode(i);e=document.createTextNode(e),c.parentNode.replaceChild(e,c)}}}catch(u){}}();/* ]]&gt; */&lt;/script&gt;\nLanguage : English\nEncoded date : UTC 2013-10-09 09:00:48\nTagged date : UTC 2013-10-09 09:02:25\n\nSynopsis\n\nIn 2013, human cities come under attack by the Kaijus: colossal extradimensional beasts who rise from an interdimensional portal on the floor of the Pacific Ocean. To combat them, the nations of the Pacific Rim build the Jaegers: equally colossal humanoid war machines. Each Jaeger is manned by two pilots whose brains are linked to share the overwhelming mental load of piloting the sophisticated machines. Though the Jaegers are effective, the Kaijus grow more powerful and their attacks more frequent. By 2025, the Pacific Rim governments have discontinued the Jaeger project, instead building massive coastal walls to protect humanity from the Kaijus. The four remaining Jaegers are redeployed to Hong Kong to defend the unfortified coast until the wall is completed. Stacker Pentecost (Elba), commander of the Jaeger forces, devises a plan to end the war by using a nuclear weapon to destroy the portal.\nPentecost approaches retired pilot Raleigh Becket (Hunnam) and convinces him to return and pilot Gipsy Danger, the Jaeger he and his brother Yancy once piloted. During a mission off the coast of Alaska in 2020, Yancy was killed by a Kaiju while connected to his brother, traumatizing Raleigh. Arriving at Hong Kong, Raleigh is paired with potential co-pilots to find one with a strong connection, as the stronger the connection, the better the pilots' performance in battle. Sensing a strong connection, Raleigh demands to be partnered with Mako Mori (Kikuchi), the director of the Jaeger refurbishment project. Pentecost opposes, as Mako is his adopted daughter, but he eventually relents. The duo's initial test run nearly ends in disaster when Mako becomes engrossed in a childhood memory of the Kaiju attack that orphaned her; she inadvertently activates and almost discharges Gipsy Danger's weapons while in the hangar. Shortly thereafter, the other Jaegers are tasked with fending off a double Kaiju attack in Hong Kong. The defense goes badly, with the Kaijus destroying two Jaegers and disabling the third. Pentecost sends Raleigh and Mako to mount a last stand with Gipsy Danger.\n\nEnjoy !","torrent":{"xt":"urn:btih:38398f610653ed85d4bb687d6c77ecc9ea1ecde9","amp;dn":"Pacific+Rim+2013.1080p.BluRay.x264+.+NVEE","amp;tr":["udp%3A%2F%2Ftracker.openbittorrent.com%3A80","udp%3A%2F%2Fopen.demonii.com%3A1337","udp%3A%2F%2Ftracker.coppersurfer.tk%3A6969","udp%3A%2F%2Fexodus.desync.com%3A6969"],"infoHash":"38398f610653ed85d4bb687d6c77ecc9ea1ecde9","infoHashBuffer":{"type":"Buffer","data":[56,57,143,97,6,83,237,133,212,187,104,125,108,119,236,201,234,30,205,233]},"announce":[],"urlList":[]}}